<svg width="239" height="172" viewBox="0 0 239 172" fill="none" xmlns="http://www.w3.org/2000/svg">
<path fill-rule="evenodd" clip-rule="evenodd" d="M124.766 104.43L9.44875 36.2432C-6.80801 26.6306 -0.863935 1.82794 17.9523 0.12007C25.0445 -0.523659 32.1909 1.43589 37.9337 5.64061L150.73 88.228L209.279 52.1798C223.873 43.1943 242.134 56.0639 238.542 72.8027L224.891 136.407C222.01 149.828 206.486 156.124 195.048 148.511L145.862 115.772L57.9233 169.684C54.9669 171.497 51.4923 172.28 48.0428 171.911C35.7933 170.6 32.5696 154.291 43.4022 148.433L124.766 104.43ZM170.204 101.19L210.773 75.2662L207.528 127.114L170.204 101.19Z" fill="url(#paint0_linear_14_258)"/>
<defs>
<linearGradient id="paint0_linear_14_258" x1="222.248" y1="112.247" x2="-0.0017675" y2="49.7076" gradientUnits="userSpaceOnUse">
<stop stop-color="#424244"/>
<stop offset="1" stop-color="#B3B3B4"/>
</linearGradient>
</defs>
</svg>
